<?xml version="1.0" encoding="UTF-8"?>
<svg xmlns="http://www.w3.org/2000/svg" viewBox="0 0 1200 675" width="1200" height="675">
  <defs>
    
      <linearGradient id="bgGrad" x1="0%" y1="0%" x2="100%" y2="100%">
        <stop offset="0%" stop-color="#020d1a"/>
        <stop offset="50%" stop-color="#07203d"/>
        <stop offset="100%" stop-color="#010712"/>
      </linearGradient>
      <linearGradient id="badgeGrad" x1="0%" y1="0%" x2="100%" y2="0%">
        <stop offset="0%" stop-color="#4facfe"/>
        <stop offset="100%" stop-color="#00f2fe"/>
      </linearGradient>
    
    <linearGradient id="cardGrad" x1="0%" y1="0%" x2="0%" y2="100%">
      <stop offset="0%" stop-color="#1e293b" stop-opacity="0.88"/>
      <stop offset="100%" stop-color="#0f172a" stop-opacity="0.94"/>
    </linearGradient>
    <linearGradient id="chartAreaGreen" x1="0%" y1="0%" x2="0%" y2="100%">
      <stop offset="0%" stop-color="#22c55e" stop-opacity="0.4"/>
      <stop offset="100%" stop-color="#22c55e" stop-opacity="0.0"/>
    </linearGradient>
    <filter id="glow" x="-30%" y="-30%" width="160%" height="160%">
      <feGaussianBlur stdDeviation="22" result="blur" />
      <feComposite in="SourceGraphic" in2="blur" operator="over" />
    </filter>
  </defs>

  <!-- Background Base -->
  <rect width="1200" height="675" fill="url(#bgGrad)"/>
  
  <!-- Category Specific Rich Artwork Layer -->
  
      <!-- Glowing Cyan Ambient Orbs -->
      <circle cx="950" cy="200" r="260" fill="#00f2fe" opacity="0.2" filter="url(#glow)"/>
      <circle cx="250" cy="480" r="200" fill="#0072ff" opacity="0.18" filter="url(#glow)"/>

      <!-- Wall Street Stock Grid -->
      <line x1="80" y1="180" x2="1120" y2="180" stroke="rgba(255,255,255,0.06)" stroke-width="1"/>
      <line x1="80" y1="300" x2="1120" y2="300" stroke="rgba(255,255,255,0.06)" stroke-width="1"/>
      <line x1="80" y1="420" x2="1120" y2="420" stroke="rgba(255,255,255,0.06)" stroke-width="1"/>

      <!-- Steep Bullish Neon Stock Line -->
      <path d="M 100 480 C 350 440, 480 340, 680 270 C 820 220, 950 140, 1080 80" fill="none" stroke="#00f2fe" stroke-width="8" stroke-linecap="round" opacity="0.9" filter="url(#glow)"/>
      <polygon points="1080,80 1045,95 1065,120" fill="#00f2fe" filter="url(#glow)"/>

      <!-- Volume Spikes Grid -->
      <rect x="740" y="320" width="18" height="180" rx="4" fill="#38ef7d" opacity="0.4"/>
      <rect x="770" y="280" width="18" height="220" rx="4" fill="#38ef7d" opacity="0.6"/>
      <rect x="800" y="240" width="18" height="260" rx="4" fill="#00f2fe" opacity="0.8"/>
      <rect x="830" y="190" width="18" height="310" rx="4" fill="#00f2fe" opacity="0.95" filter="url(#glow)"/>

      <!-- Floating Bull Market Badge Artwork -->
      <g filter="url(#glow)" transform="translate(900, 120)">
        <rect x="0" y="0" width="140" height="90" rx="16" fill="rgba(0,242,254,0.15)" stroke="#00f2fe" stroke-width="3"/>
        <text x="70" y="45" font-family="'Segoe UI', sans-serif" font-size="28" font-weight="900" fill="#38ef7d" text-anchor="middle">+14.8%</text>
        <text x="70" y="72" font-family="'Segoe UI', sans-serif" font-size="14" font-weight="bold" fill="#00f2fe" text-anchor="middle">BULL RUN</text>
      </g>
    

  <!-- Main Card Glass Container -->
  <rect x="65" y="55" width="1070" height="565" rx="36" fill="url(#cardGrad)" stroke="rgba(255,255,255,0.18)" stroke-width="2"/>

  <!-- Category Badge Container -->
  <rect x="115" y="110" width="430" height="62" rx="31" fill="url(#badgeGrad)"/>
  <text x="145" y="150" font-family="'Malgun Gothic', 'Noto Sans KR', sans-serif" font-size="23" font-weight="bold" fill="#ffffff">
    📈  STOCK MARKET INSIGHT
  </text>

  <!-- Main Title Line 1 -->
  <text x="115" y="260" font-family="'Malgun Gothic', 'Noto Sans KR', sans-serif" font-size="44" font-weight="900" fill="#ffffff">
    Investing in the
  </text>

  <!-- Main Title Line 2 -->
  <text x="115" y="332" font-family="'Malgun Gothic', 'Noto Sans KR', sans-serif" font-size="44" font-weight="900" fill="#00f2fe">
    &quot;Magnificent Seven?&quot; ...
  </text>

  <!-- Bottom Divider Line -->
  <line x1="115" y1="470" x2="1035" y2="470" stroke="rgba(255,255,255,0.15)" stroke-width="2" stroke-dasharray="8 8"/>

  <!-- Footer Brand Tag -->
  <text x="115" y="535" font-family="'Malgun Gothic', 'Noto Sans KR', sans-serif" font-size="26" font-weight="bold" fill="#00f2fe">
    ⚡ JookJook Insight Report
  </text>

  <!-- Ticker Tags -->
  <text x="1035" y="535" font-family="'Malgun Gothic', 'Noto Sans KR', sans-serif" font-size="24" font-weight="bold" fill="#94a3b8" text-anchor="end">
    $NVDA $TSLA #미국주식 #증시전망
  </text>
</svg>